<?xml version="1.0" standalone="no"?>
<!DOCTYPE svg PUBLIC "-//W3C//DTD SVG 20010904//EN"
 "http://www.w3.org/TR/2001/REC-SVG-20010904/DTD/svg10.dtd">
<svg version="1.0" xmlns="http://www.w3.org/2000/svg"
 width="192.000000pt" height="192.000000pt" viewBox="0 0 192.000000 192.000000"
 preserveAspectRatio="xMidYMid meet">
<metadata>
Created by potrace 1.14, written by Peter Selinger 2001-2017
</metadata>
<g transform="translate(0.000000,192.000000) scale(0.100000,-0.100000)"
fill="#000000" stroke="none">
<path d="M630 1684 c0 -22 7 -49 15 -60 8 -10 14 -26 15 -34 0 -13 -1 -13 -10
0 -8 12 -10 12 -10 1 0 -8 -7 -11 -20 -8 -11 3 -20 1 -20 -4 0 -16 -28 -10
-42 9 -16 22 -48 25 -48 4 0 -8 8 -21 18 -29 12 -10 14 -16 5 -19 -7 -3 -13
-12 -13 -20 0 -8 -5 -14 -12 -14 -6 0 -9 -2 -7 -5 3 -2 29 4 58 15 29 11 56
18 62 15 5 -4 9 -2 9 3 0 20 30 21 41 1 9 -17 7 -25 -9 -42 -39 -44 -53 -87
-27 -87 8 0 17 15 21 38 11 62 53 71 100 21 28 -30 28 -31 10 -45 -17 -12 -18
-14 -3 -14 9 0 17 5 17 10 0 6 4 10 8 10 17 0 32 -54 37 -133 5 -75 4 -80 -10
-63 -8 11 -15 39 -15 62 0 130 -71 126 -144 -7 -65 -120 -141 -248 -146 -248
-3 0 -27 39 -54 87 -107 192 -179 280 -213 259 -5 -3 -6 -48 -2 -99 4 -51 13
-257 20 -458 7 -201 13 -381 15 -400 1 -19 2 -45 3 -57 1 -20 7 -23 39 -23 68
0 65 -13 60 304 -2 157 -3 286 -2 286 1 0 17 -24 34 -52 39 -65 89 -118 109
-118 16 0 54 48 67 85 9 27 66 115 73 115 19 0 30 -55 40 -206 6 -93 16 -214
21 -269 5 -55 8 -111 7 -125 -2 -22 2 -25 26 -22 67 7 77 17 79 79 4 101 -1
176 -12 183 -5 3 -9 35 -9 71 1 35 2 103 3 152 2 133 16 112 32 -48 4 -38 8
-95 8 -125 1 -30 6 -68 10 -84 7 -23 6 -28 -5 -22 -10 5 -10 4 1 -6 30 -27 38
-125 16 -202 -9 -30 -14 -60 -11 -68 6 -17 1 -24 -67 -80 l-56 -48 -89 0
c-100 0 -218 15 -236 30 -55 45 -97 89 -89 93 5 4 57 9 116 13 59 4 109 11
113 17 4 6 -16 7 -58 3 -118 -14 -199 -17 -199 -7 0 5 8 12 18 14 11 3 8 5 -9
6 -15 0 -32 8 -39 16 -7 8 -18 15 -24 15 -24 1 -84 169 -91 257 -8 89 -23 153
-37 153 -6 0 -4 8 5 18 10 10 13 23 8 31 -11 18 -1 154 13 164 8 5 7 9 -2 15
-9 6 -12 25 -10 58 2 38 0 48 -11 46 -11 -2 -13 7 -8 46 6 51 -6 91 -17 56 -9
-31 -26 -270 -26 -373 0 -87 8 -184 25 -296 5 -36 43 -131 99 -244 11 -24 45
-68 74 -98 28 -30 52 -58 52 -63 0 -4 14 -13 31 -20 17 -7 43 -25 58 -40 34
-35 104 -49 196 -40 75 7 113 21 158 57 16 13 34 23 40 23 6 0 40 30 76 67 52
54 70 81 92 142 45 119 53 171 39 264 -6 44 -23 104 -36 134 -14 30 -35 97
-47 149 -20 88 -20 102 -9 250 11 146 10 162 -9 252 -21 98 -38 146 -39 110 0
-10 -5 -18 -10 -18 -6 0 -14 -10 -19 -22 -8 -22 -8 -22 -18 -3 -18 35 -25 78
-12 69 9 -5 10 3 6 32 -4 21 -7 45 -7 52 0 6 -4 12 -10 12 -5 0 -10 -17 -11
-37 0 -21 -3 -32 -6 -25 -2 6 -14 12 -26 12 -12 0 -29 6 -38 13 -20 15 -59 90
-59 115 0 10 -7 27 -15 38 -13 18 -14 16 -15 -22z m270 -415 c0 -5 -7 -9 -15
-9 -8 0 -15 7 -15 15 0 9 6 12 15 9 8 -4 15 -10 15 -15z m-60 -119 c0 -12 -7
-31 -16 -45 -9 -13 -14 -38 -12 -57 l4 -33 11 35 c11 34 11 32 12 -32 1 -63
-9 -92 -24 -68 -13 21 -19 190 -6 190 6 0 11 7 11 15 0 8 5 15 10 15 6 0 10
-9 10 -20z m-375 -1080 c3 -6 -1 -7 -9 -4 -18 7 -21 14 -7 14 6 0 13 -4 16
-10z"/>
<path d="M596 1665 c-3 -9 -6 -24 -5 -33 0 -9 5 -4 10 12 9 32 6 48 -5 21z"/>
<path d="M1290 1606 c-47 -20 -90 -35 -95 -36 -6 0 -33 -21 -60 -46 l-50 -47
-32 -166 c-18 -91 -43 -222 -54 -290 l-22 -125 21 -95 c12 -53 26 -136 32
-186 14 -113 17 -127 45 -195 13 -30 42 -114 64 -186 49 -153 50 -154 185
-174 117 -18 205 -6 307 43 75 36 76 36 112 111 27 56 42 108 57 194 11 64 17
126 14 138 -3 11 2 70 11 130 13 84 15 144 10 259 -4 83 -2 196 3 252 9 88 8
116 -8 193 -20 97 -25 110 -43 110 -7 0 -28 19 -47 41 -55 64 -136 96 -262
103 -101 6 -105 6 -188 -28z m215 -61 c11 -6 59 -22 108 -35 48 -13 85 -25 82
-28 -3 -3 2 -14 12 -24 9 -10 13 -18 9 -18 -4 0 2 -12 14 -27 19 -24 20 -29 6
-39 -21 -15 -20 -23 3 -17 15 4 19 -3 24 -33 4 -23 2 -41 -4 -45 -7 -4 -5 -9
5 -12 10 -4 16 -18 16 -36 0 -16 5 -33 10 -36 13 -8 13 -72 0 -80 -6 -4 -7
-23 -4 -46 4 -21 2 -45 -3 -51 -6 -7 -13 -25 -17 -40 -4 -17 -13 -28 -24 -29
-11 0 -8 -4 9 -10 21 -8 28 -19 33 -50 6 -36 3 -45 -26 -81 -29 -37 -32 -48
-33 -112 -1 -39 -5 -79 -9 -88 -5 -11 -4 -18 3 -18 16 0 13 -62 -5 -85 -8 -11
-34 -26 -57 -32 l-42 -13 49 5 49 5 -6 -56 c-6 -58 -25 -86 -95 -138 -29 -21
-37 -22 -88 -14 -65 10 -84 5 -27 -8 l38 -8 -55 -6 -55 -7 60 -1 c91 -3 137
-13 131 -28 -3 -7 -1 -14 4 -16 14 -4 -39 -68 -56 -68 -8 0 -14 6 -14 14 0 15
-93 27 -113 14 -19 -12 20 -21 63 -15 64 8 51 -19 -14 -33 -56 -12 -121 -5
-143 14 -33 30 -41 33 -70 29 -25 -4 -34 0 -52 25 -26 37 -27 52 -3 52 10 1 5
6 -14 14 -29 13 -47 48 -58 116 -1 8 -7 24 -14 36 -6 11 -13 32 -16 45 -3 13
-12 46 -21 73 -12 40 -13 56 -3 83 7 18 16 33 21 33 5 0 -1 12 -12 26 -17 21
-18 29 -8 46 9 16 9 22 0 25 -8 3 -13 22 -13 47 0 37 4 44 28 53 l27 11 -27 1
c-23 1 -28 6 -28 25 0 14 -4 36 -10 50 -6 17 -6 26 0 26 6 0 5 8 -2 19 -9 15
-8 24 5 45 16 24 16 26 -3 36 -25 13 -28 75 -5 88 9 4 18 25 22 45 5 32 3 37
-13 38 -15 0 -14 2 6 11 21 9 22 12 8 15 -24 6 -23 38 1 62 11 11 27 34 36 52
15 29 16 31 1 26 -12 -5 -16 0 -16 16 0 24 27 52 63 67 19 8 20 9 3 9 -15 1
-16 4 -6 16 7 9 15 13 18 10 3 -3 20 9 38 26 26 25 42 32 93 36 33 3 61 10 61
15 0 12 100 -1 125 -17z"/>
<path d="M1336 1478 c-83 -58 -100 -100 -100 -238 0 -73 6 -124 18 -168 18
-59 25 -68 101 -135 92 -80 135 -152 135 -226 0 -48 -31 -87 -58 -75 -9 4 -33
7 -52 6 -31 -2 -38 3 -63 42 -45 72 -54 75 -88 37 -16 -19 -29 -39 -28 -45 0
-7 3 -6 6 2 2 6 9 12 14 12 5 0 2 -18 -7 -40 -14 -35 -15 -43 -2 -58 7 -9 21
-34 31 -54 22 -49 82 -91 151 -107 52 -12 60 -11 101 9 49 24 107 104 126 175
16 58 5 189 -21 260 -27 71 -69 114 -148 152 -42 21 -65 41 -90 78 -32 47 -34
54 -28 108 7 70 18 92 55 112 27 13 31 13 55 -6 30 -24 66 -88 66 -119 0 -26
5 -25 65 8 46 25 50 30 49 64 -2 78 -142 249 -203 247 -14 0 -52 -19 -85 -41z"/>
<path d="M1603 1483 c9 -2 23 -2 30 0 6 3 -1 5 -18 5 -16 0 -22 -2 -12 -5z"/>
<path d="M1565 1170 c-15 -17 -16 -20 -3 -20 9 0 19 7 22 16 10 25 1 27 -19 4z"/>
<path d="M1368 723 c7 -3 16 -2 19 1 4 3 -2 6 -13 5 -11 0 -14 -3 -6 -6z"/>
<path d="M1423 723 c9 -2 23 -2 30 0 6 3 -1 5 -18 5 -16 0 -22 -2 -12 -5z"/>
<path d="M1573 453 c9 -2 23 -2 30 0 6 3 -1 5 -18 5 -16 0 -22 -2 -12 -5z"/>
<path d="M1298 313 c7 -3 16 -2 19 1 4 3 -2 6 -13 5 -11 0 -14 -3 -6 -6z"/>
<path d="M1180 271 c0 -11 29 -35 35 -29 10 9 -7 38 -21 38 -8 0 -14 -4 -14
-9z"/>
<path d="M1398 233 c7 -3 16 -2 19 1 4 3 -2 6 -13 5 -11 0 -14 -3 -6 -6z"/>
<path d="M171 1311 c-9 -16 -10 -26 -2 -34 13 -13 25 12 19 40 -3 16 -5 15
-17 -6z"/>
<path d="M640 890 c-8 -5 -10 -10 -5 -10 6 0 17 5 25 10 8 5 11 10 5 10 -5 0
-17 -5 -25 -10z"/>
<path d="M634 775 c-10 -8 -14 -15 -8 -15 5 0 19 7 30 15 10 8 14 15 8 15 -5
0 -19 -7 -30 -15z"/>
<path d="M171 696 c12 -10 59 -15 59 -6 0 5 -14 10 -32 10 -17 0 -29 -2 -27
-4z"/>
<path d="M635 680 c7 -11 45 -20 45 -10 0 4 -11 10 -25 12 -13 3 -22 2 -20 -2z"/>
<path d="M208 633 c6 -2 18 -2 25 0 6 3 1 5 -13 5 -14 0 -19 -2 -12 -5z"/>
<path d="M690 406 c-5 -13 -15 -26 -22 -29 -7 -3 -3 -4 10 -4 12 1 22 5 22 10
0 4 5 5 10 2 6 -3 10 -1 10 4 0 6 -5 11 -11 11 -6 0 -9 7 -5 15 3 8 3 15 0 15
-2 0 -9 -11 -14 -24z"/>
<path d="M595 355 l-30 -14 30 6 c17 3 37 9 45 14 27 15 -11 10 -45 -6z"/>
<path d="M590 300 c0 -5 21 -10 47 -10 55 0 171 -19 196 -32 10 -5 17 -5 17 1
0 14 -20 19 -140 36 -126 18 -120 17 -120 5z"/>
</g>
</svg>
